<?xml version="1.0" standalone="no"?><!DOCTYPE svg PUBLIC "-//W3C//DTD SVG 1.1//EN" "http://www.w3.org/Graphics/SVG/1.1/DTD/svg11.dtd"><svg t="1544251466720" class="icon" style="" viewBox="0 0 1024 1024" version="1.1" xmlns="http://www.w3.org/2000/svg" p-id="25680" xmlns:xlink="http://www.w3.org/1999/xlink" width="64" height="64"><defs><style type="text/css"></style></defs><path d="M514.272 61.392c-249.517 0-451.79 202.273-451.79 451.79s202.273 451.79 451.79 451.79 451.79-202.273 451.79-451.79-202.273-451.79-451.79-451.79z m0 854.737c-222.542 0-402.948-180.406-402.948-402.947S291.73 110.235 514.272 110.235 917.219 290.64 917.219 513.182 736.814 916.129 514.272 916.129z" fill="" p-id="25681"></path><path d="M514.295 302.02c-9.446 10.362-14.308 22.952-14.308 37.484 0 11.96 3.887 22.396 11.535 30.458 7.783 8.211 17.854 12.45 29.314 12.45 9.312 0 23.139-2.85 35.783-16.9 9.865-10.642 14.866-23.438 14.866-37.694 0-11.68-4.032-21.9-11.744-29.832-16.815-17.312-47.382-15.436-65.446 4.035zM549.461 602.717c-12.11 11.542-20.59 18.76-26.236 23.316 2.77-14.953 9.976-44.614 27.33-103.023 17.298-57.89 18.8-67.992 18.8-72.956 0-8.657-3.638-16.335-9.923-21.643-14.124-11.661-39.035-9.35-69.131 7.678-16.78 9.408-34.596 24.76-54.493 46.577l-10.378 11.542 34.425 26.548 8.82-8.715c9.572-9.293 16.086-15.352 20.411-19.394-26.295 86.46-39.093 140.191-39.093 164.262 0 10.908 3.172 19.971 9.573 26.84 6.46 7.039 15.51 10.736 25.891 10.736 10.147 0 21.793-3.926 35.923-11.949 12.74-7.212 31.883-23.03 58.641-48.19l10.838-10.392-31.307-30.475-10.09 9.238z" fill="#FFCC00" p-id="25682"></path></svg>