<?xml version="1.0" standalone="no"?><!DOCTYPE svg PUBLIC "-//W3C//DTD SVG 1.1//EN" "http://www.w3.org/Graphics/SVG/1.1/DTD/svg11.dtd"><svg t="1551784153549" class="icon" style="" viewBox="0 0 1024 1024" version="1.1" xmlns="http://www.w3.org/2000/svg" p-id="15432" xmlns:xlink="http://www.w3.org/1999/xlink" width="16" height="16"><defs><style type="text/css"></style></defs><path d="M0 628.736 0 489.792c0-12.736 10.496-23.104 23.296-23.104l245.504 0-106.88 185.28L23.232 651.968C10.432 651.968 0 641.472 0 628.736zM174.848 913.344 96.512 966.4c-10.56 7.168-17.984 2.624-16.576-9.984l10.496-90.88c1.408-12.608 11.712-17.728 22.784-11.52l60.608 34.688C184.96 894.976 185.408 906.112 174.848 913.344zM193.664 862.144 133.056 827.52c-11.072-6.4-14.976-20.608-8.576-31.616L405.312 309.12c6.4-11.072 20.736-14.912 31.808-8.512l60.608 34.56c11.136 6.4 14.912 20.608 8.576 31.68l-280.832 486.848C219.136 864.64 204.8 868.416 193.664 862.144zM407.36 651.968l106.944-185.28 61.568 0 86.784 185.28L407.36 651.968zM755.648 707.264c-24.32-12.096-145.28-289.856-176.192-362.368C548.416 272.448 454.72 79.552 485.056 64.512c21.568-10.752 98.944 141.12 156.928 232.32 57.856 91.2 179.008 326.272 193.856 353.088 14.784 26.816-14.272 49.216-30.464 55.936C789.248 712.576 779.904 719.232 755.648 707.264zM835.072 834.88l-36.544-57.408c-7.488-11.968-3.648-26.688 8.64-33.088l34.88-17.728c12.224-6.272 27.648-1.28 34.112 11.264l28.864 55.232c6.528 12.416 2.048 28.48-9.728 35.52L870.4 843.52C858.496 850.624 842.624 846.72 835.072 834.88zM969.472 985.6c-7.616-24.384-65.856-25.984-92.032-62.656-26.112-36.544-4.48-55.36 4.544-64.064C987.904 799.616 969.472 985.6 969.472 985.6zM1024 628.736c0 12.736-10.496 23.168-23.296 23.168l-122.944 0c-1.344-7.168-3.52-14.336-7.232-20.992-3.2-5.696-11.264-21.056-22.528-42.496-16.32-30.912-39.616-75.136-64.704-121.728l217.344 0c12.8 0 23.296 10.432 23.296 23.104L1023.936 628.736 1024 628.736z" p-id="15433"></path></svg>