<?xml version="1.0" standalone="no"?><!DOCTYPE svg PUBLIC "-//W3C//DTD SVG 1.1//EN" "http://www.w3.org/Graphics/SVG/1.1/DTD/svg11.dtd"><svg t="1544433558102" class="icon" style="" viewBox="0 0 1024 1024" version="1.1" xmlns="http://www.w3.org/2000/svg" p-id="95630" xmlns:xlink="http://www.w3.org/1999/xlink" width="32" height="32"><defs><style type="text/css"></style></defs><path d="M950.865 633.845l-111.216-111.222c-4.558-4.565-10.627-7.078-17.096-7.078-6.482 0-12.551 2.513-17.11 7.078l-277.37 277.363c-4.571 4.605-7.085 10.694-7.085 17.157l0 109.885c0 13.341 10.854 24.195 24.208 24.195l110.774 0c6.457 0 12.539-2.499 17.137-7.058l166.155-166.161c4.571-4.559 7.085-10.64 7.085-17.11s-2.513-12.552-7.085-17.11c-4.559-4.566-10.627-7.078-17.096-7.078-6.484 0-12.552 2.513-17.11 7.078l-158.161 159.049-77.503 0.762-0.668-75.758 253.309-254.404 78.104 77.028-21.214 22.217-38.831-38.831c-4.558-4.566-10.627-7.078-17.096-7.078-6.484 0-12.552 2.513-17.11 7.078-4.571 4.558-7.085 10.64-7.085 17.104 0 6.47 2.513 12.551 7.085 17.11l55.38 55.38c4.571 4.571 10.64 7.085 17.11 7.085s12.539-2.513 17.11-7.085l55.38-55.38c4.571-4.559 7.085-10.642 7.085-17.11 0-6.47-2.513-12.546-7.085-17.104zM224.789 665.471c-15.79 0-28.638 12.863-28.638 28.681 0 15.782 12.848 28.616 28.638 28.616l257.921 0 56.668-57.297-314.589 0zM819.097 382.651l-0.033-66.382c-0.042-2.459-0.574-4.436-1.113-6.513-0.157-0.835-0.489-2.558-1.298-4.358-0.829-1.912-1.864-3.275-2.601-4.267-1.808-2.856-2.672-3.919-2.948-3.934l-1.254-1.347c-1.417-1.318-2.728-2.069-3.925-2.708-1.119-0.757-2.822-1.906-5.21-2.849-2.048-0.786-3.883-1.063-5.329-1.261-0.779-0.213-2.593-0.716-4.875-0.716l-169.778 0c-15.782 0-28.616 12.848-28.616 28.645s12.834 28.644 28.616 28.644l105.501 0-192.164 213.519-169.701-157.186-160.892 178.75c-5.102 5.684-7.689 13.018-7.284 20.659 0.397 7.64 3.742 14.648 9.397 19.722 5.279 4.783 12.097 7.413 19.206 7.413 8.114 0 15.867-3.465 21.26-9.503l121.984-135.555 169.729 157.178 224.105-249.023 0 48.928 57.222-57.859zM127.678 851.272l0-691.457c0-18.879 15.365-34.237 34.251-34.237l691.444 0c18.887 0 34.251 15.357 34.251 34.237l0 240.971 57.248 56.62 0-297.591c0-50.458-41.047-91.505-91.497-91.505l-691.445 0c-50.458 0-91.505 41.047-91.505 91.505l0 691.457c0 50.443 41.047 91.491 91.505 91.497l205.837 0 0-57.262-205.837 0c-18.886 0-34.251-15.357-34.251-34.237z" p-id="95631"></path></svg>