<?xml version="1.0" standalone="no"?><!DOCTYPE svg PUBLIC "-//W3C//DTD SVG 1.1//EN" "http://www.w3.org/Graphics/SVG/1.1/DTD/svg11.dtd"><svg t="1544246680219" class="icon" style="" viewBox="0 0 1024 1024" version="1.1" xmlns="http://www.w3.org/2000/svg" p-id="6230" xmlns:xlink="http://www.w3.org/1999/xlink" width="64" height="64"><defs><style type="text/css"></style></defs><path d="M609.704409 650.15873c-22.394356-32.507937-35.397531-63.932275-34.675132-104.025397 0.361199-8.668783-7.223986-12.280776-13.725573-11.197178-0.722399-1.083598-1.805996-1.805996-2.889595-2.528395-33.591534-21.310758-77.296649-15.892769-113.055379-3.250794-2.889594 1.083598-4.695591 3.611993-5.779189 6.140388-4.334392 0.722399-7.946384 4.334392-6.501587 10.113581 10.835979 46.955908-5.779189 78.380247-27.451146 117.75097-11.558377 21.310758-15.53157 44.066314-8.668783 67.544268 15.892769 53.818695 71.51746 78.741446 124.613756 75.851852 50.929101-2.889594 102.2194-28.534744 109.804586-83.798237 3.250794-27.451146-6.501587-50.206702-21.671958-72.601058z" fill="#F2E2D5" p-id="6231"></path><path d="M704.338624 325.079365c2.889594-25.283951 3.611993-50.206702 0.722399-73.323457-15.53157-121.001764-176.626455-107.63739-265.120282-107.27619-53.096296 0.361199-85.243034 26.367549-99.329806 77.296649-9.752381 34.675132-13.725573 71.51746-13.364374 107.998589-8.307584-1.444797-17.337566 1.444797-23.477954 7.946384-9.391182 10.11358-9.752381 25.64515-8.307584 38.287126 1.444797 13.003175 6.501587 26.367549 18.059965 33.591534 6.501587 3.611993 13.725573 5.05679 20.588359 3.250794 0.361199 1.805996 0.722399 3.973192 1.083598 5.779188 0.361199 1.083598 0.722399 2.167196 1.444798 2.889595 6.501587 34.313933 19.504762 67.183069 40.81552 96.079012 55.624691 75.490653 158.205291 96.801411 232.251146 34.675132 39.009524-32.869136 62.126279-79.825044 75.129453-128.948148 1.083598-3.973192 2.167196-7.946384 3.250794-12.280776 1.083598 0.361199 2.528395 0.722399 3.973192 0.722399 37.564727-1.805996 44.788713-77.296649 12.280776-86.687831z" fill="#F0CFB9" p-id="6232"></path><path d="M726.732981 274.150265c-6.862787 30.340741-5.05679 1.805996-3.611993-7.585186 1.805996-10.835979 3.611993-21.310758 5.417989-32.146737 2.528395-14.809171 6.862787-29.979541 2.167196-44.788712-0.722399-2.528395-4.334392-2.528395-5.05679 0-10.47478 33.591534-9.391182-7.946384-12.280776-20.58836-4.334392-18.059965-10.835979-34.675132-19.143563-51.2903-1.083598-2.528395-5.05679-1.083598-5.05679 1.444797l-1.444797 20.227161c0.722399 3.250794 0.361199 2.889594-0.722399-1.805997 1.444797 1.444797-4.695591-10.47478-5.779189-13.364374-4.695591-8.307584-10.835979-14.809171-18.059964-20.949559-6.140388-6.140388-13.003175-10.835979-20.949559-14.447972-1.805996-0.722399-4.695591 0.722399-3.973193 2.889595 3.250794 8.307584 5.417989 16.615168 6.140388 25.28395-14.447972-16.615168-32.146737-29.257143-52.735097-37.564726-2.528395-1.083598-4.695591 2.167196-3.250793 4.334391 5.05679 8.307584 8.668783 16.976367 11.197178 26.00635-11.919577-17.337566-28.895944-29.979541-49.845503-36.842329-2.889594-1.083598-5.05679 3.250794-3.250793 5.056791 1.805996 5.05679 6.140388 17.337566-0.722399 19.865961 0 0-13.003175-15.17037-11.919577-14.086773-8.668783-9.029982-18.421164-16.253968-29.257143-22.755555-1.805996-1.083598-3.611993 0.722399-3.611992 2.528395-5.779189 31.424339-11.197178 36.481129-16.615168 14.809171-0.722399-1.805996-3.250794-2.528395-4.334392-0.722399-11.197178 22.755556-8.307584-1.805996-7.946384-13.725573 0-1.805996-2.167196-2.889594-3.611993-2.167196-9.752381 5.417989-18.782363 11.197178-26.728748 19.143563-7.946384 7.946384-10.835979 20.22716-14.809171 1.444797-0.361199-1.444797-2.167196-2.167196-3.611993-1.444797-15.53157 8.307584-27.812346 18.782363-37.925926 32.869136l0.3612-22.033157c0-2.528395-2.889594-3.611993-4.695591-1.805997-8.668783 7.946384-16.615168 16.253968-23.839154 25.64515-1.083598 1.083598-9.391182 14.447972-9.752381 14.086773-3.973192-1.083598-0.722399-23.116755-0.361199-25.283951 0.361199-2.889594-3.611993-3.250794-4.695591-1.444797-12.641975 18.421164-22.394356 37.925926-28.534744 59.597884-1.444797 5.05679-2.167196 10.835979-2.889594 16.253968-1.444797 4.695591-2.528395 9.391182-3.250794 14.447972-0.361199 0.722399-0.361199 1.444797-0.361199 2.167195-0.361199 1.083598-0.361199 2.528395-0.722399 3.611993-3.250794-5.779189-5.417989-11.919577-6.501587-18.421164-0.722399-2.528395-4.695591-2.528395-5.05679 0-3.250794 20.22716-5.05679 40.81552-3.611993 61.40388 0.361199 6.862787 1.083598 14.086772 2.167195 20.949559 1.083598 7.585185 14.447972 46.955908-2.889594 19.504762-1.444797-2.528395-5.417989-0.722399-4.695591 1.805997 3.973192 18.059965 9.029982 34.675132 16.976367 51.2903l0.361199 0.361199c-0.361199 0.722399-0.722399 1.805996-1.083597 2.889594 0 0.722399 0.722399 1.083598 1.444797 0.722399 6.140388-8.668783 24.561552-3.250794 29.618342 2.528395 4.695591 5.05679 5.05679 16.615168 5.417989 22.755555 1.083598 12.641975 1.444797 25.64515 4.334392 38.287126 0.361199 1.083598 1.444797 1.444797 2.528395 0.722398 7.946384 6.140388 15.892769 10.835979 24.922751 15.892769 1.805996 1.083598 3.611993-0.361199 3.611993-2.167196 0.722399-37.564727-8.668783-74.407055-9.752381-111.971781-0.361199-18.421164 0.722399-37.203527 6.862787-54.541093 5.05679-14.086772 13.003175-24.200353 15.531569-37.925926 43.343915 21.310758 91.383422 30.340741 139.422928 34.675132 41.17672 3.611993 87.04903 6.140388 120.279365-22.394356 23.116755 29.618342 13.364374 78.019048 9.029983 113.055379-2.889594 22.755556-13.725573 56.708289-6.501588 79.102645 0 0.361199 0.361199 0.361199 0.3612 0.722399 0.361199 1.444797 1.805996 2.528395 3.250793 1.444797 3.973192-2.528395 7.223986-6.501587 11.197178-9.391181 1.083598-0.722399 2.528395-1.805996 3.611993-2.528395 1.805996-0.722399 3.611993-1.805996 5.05679-3.250794 1.083598-0.722399 2.528395-1.444797 3.611993-2.167196 0.361199-0.361199 0.722399-0.722399 0.722399-1.083598 0.361199-0.361199 0.722399-0.722399 0.722399-1.444797 0.361199-15.17037 0-29.618342 4.69559-44.427513 1.805996-6.140388 3.973192-16.615168 9.029983-21.310759 9.752381-9.391182 20.949559 0 27.812345 5.41799 0.722399 0.722399 1.805996-0.361199 1.444798-1.444797 0.722399 0 1.083598-0.361199 1.444797-1.083598 3.611993-13.364374 5.779189-27.089947 7.585185-40.454321 1.083598-1.083598 1.083598-2.889594 0.361199-3.973192 0.722399-6.140388 1.083598-12.280776 1.805997-18.421164 0-2.167196-4.334392-2.889594-5.05679 0z" fill="#7B4D23" p-id="6233"></path><path d="M680.499471 124.252557c0.361199 0.361199 0.361199 0.722399 0.722398 1.083598-0.722399-1.805996-1.083598-1.805996-0.722398-1.083598z" fill="#7B4D23" p-id="6234"></path><path d="M829.67478 775.133686c-13.364374-34.675132-26.728748-67.544268-62.848678-83.798236-45.87231-20.58836-103.302998-36.119929-152.787301-42.982716-1.444797-0.361199-2.167196 0.361199-3.250794 1.083598-1.444797-0.722399-2.889594-1.083598-4.695591-0.3612-31.424339 14.809171-64.654674 23.116755-99.329806 22.394357-32.507937-0.722399-59.236684-12.641975-89.938624-19.504762-0.722399-0.361199-1.444797-0.722399-2.528395-0.722399-47.317108 7.585185-96.079012 27.089947-140.506526 45.149912-35.036332 14.086772-75.851852 33.230335-86.326631 71.51746-1.444797 5.05679 3.611993-9.752381 2.167196-5.779189 0 0.722399 0.361199-0.722399 0 0-2.889594 9.029982-22.394356 55.263492-25.64515 65.738272 0 0.361199 2.889594-6.140388 2.528395-5.779189-0.722399 2.528395 1.444797-2.889594 0 0-0.361199 1.083598 0.361199-0.361199-0.3612 0.3612-1.083598 2.889594 1.805996-2.528395 0 0-0.722399 1.805996-1.444797 3.611993-2.528395 5.417989 2.167196 1.805996 4.695591 3.973192 7.585186 6.501587 78.019048 64.654674 148.814109 91.383422 172.653262 98.607408 41.899118 12.641975 83.798236 35.75873 196.131217 29.618342 74.768254-3.973192 137.978131-22.755556 158.92769-29.618342 88.132628-29.618342 154.954497-83.798236 155.315697-84.520635-9.391182-37.925926-10.835979-37.203527-24.561552-73.323457z" fill="#E88D15" p-id="6235"></path></svg>