<?xml version="1.0" standalone="no"?><!DOCTYPE svg PUBLIC "-//W3C//DTD SVG 1.1//EN" "http://www.w3.org/Graphics/SVG/1.1/DTD/svg11.dtd"><svg t="1544432892882" class="icon" style="" viewBox="0 0 1024 1024" version="1.1" xmlns="http://www.w3.org/2000/svg" p-id="84737" xmlns:xlink="http://www.w3.org/1999/xlink" width="32" height="32"><defs><style type="text/css"></style></defs><path d="M869.262 116.053H571.164c-20.48 0-36.408 15.93-36.408 36.41v300.373c0 20.48 15.928 36.408 36.408 36.408h298.098c20.48 0 36.41-15.928 36.41-36.408V152.462c0-20.48-15.93-36.409-36.41-36.409zM794.17 327.68H643.982c-15.929 0-29.582-11.378-29.582-25.031 0-13.653 13.653-25.031 29.582-25.031H794.17c15.929 0 29.582 11.378 29.582 25.03 0 13.654-13.653 25.032-29.582 25.032zM436.907 116.053H138.809c-20.48 0-36.409 15.93-36.409 36.41v300.373c0 20.48 15.929 36.408 36.409 36.408h298.098c20.48 0 36.409-15.928 36.409-36.408V152.462c0-20.48-15.93-36.409-36.41-36.409zM361.813 327.68h-50.062v50.062c0 15.93-11.378 29.582-25.031 29.582-13.653 0-25.031-13.653-25.031-29.582V327.68h-50.062c-15.93 0-29.583-11.378-29.583-25.031 0-13.653 13.654-25.031 29.583-25.031h50.062v-50.062c0-15.93 11.378-29.583 25.031-29.583 13.653 0 25.031 13.654 25.031 29.583v50.062h50.062c15.93 0 29.583 11.378 29.583 25.03 0 13.654-13.654 25.032-29.583 25.032z m75.094 218.453H138.809c-20.48 0-36.409 15.93-36.409 36.41v300.373c0 20.48 15.929 36.408 36.409 36.408h298.098c20.48 0 36.409-15.928 36.409-36.408V582.542c0-20.48-15.93-36.409-36.41-36.409z m-150.187 81.92c15.929 0 29.582 13.654 29.582 29.583 0 15.928-13.653 29.582-29.582 29.582s-29.582-13.654-29.582-29.582c2.275-15.93 13.653-29.583 29.582-29.583z m0 209.351c-15.929 0-29.582-13.653-29.582-29.582s13.653-29.582 29.582-29.582 29.582 13.653 29.582 29.582c0 18.205-13.653 29.582-29.582 29.582z m75.093-79.644H211.627c-15.93 0-29.583-11.378-29.583-25.031 0-13.653 13.654-25.031 29.583-25.031h150.186c15.93 0 29.583 11.378 29.583 25.03 0 13.654-13.654 25.032-29.583 25.032z m507.45-211.627H571.163c-20.48 0-36.408 15.93-36.408 36.41v300.373c0 20.48 15.928 36.408 36.408 36.408h298.098c20.48 0 36.41-15.928 36.41-36.408V582.542c0-20.48-15.93-36.409-36.41-36.409z m-75.094 259.414H643.982c-15.929 0-29.582-11.378-29.582-25.031 0-13.654 13.653-25.032 29.582-25.032H794.17c15.929 0 29.582 11.378 29.582 25.032 0 13.653-13.653 25.03-29.582 25.03z m0-95.574H643.982c-15.929 0-29.582-11.377-29.582-25.03 0-13.654 13.653-25.032 29.582-25.032H794.17c15.929 0 29.582 11.378 29.582 25.031 0 13.654-13.653 25.031-29.582 25.031z m0 0" p-id="84738"></path></svg>