<?xml version="1.0" standalone="no"?><!DOCTYPE svg PUBLIC "-//W3C//DTD SVG 1.1//EN" "http://www.w3.org/Graphics/SVG/1.1/DTD/svg11.dtd"><svg t="1548318925426" class="icon" style="" viewBox="0 0 1024 1024" version="1.1" xmlns="http://www.w3.org/2000/svg" p-id="3799" xmlns:xlink="http://www.w3.org/1999/xlink" width="64" height="64"><defs><style type="text/css"></style></defs><path d="M513 524.652m-429.522 0a429.522 429.522 0 1 0 859.044 0 429.522 429.522 0 1 0-859.044 0Z" fill="#78C06E" p-id="3800"></path><path d="M724.337 756.152c-17.182 5.699-33.414 2.468-46.427-10.805-32.638-33.502-164.866-167.679-197.023-201.822-8.622-9.077-12.705-20.622-12.705-33.551 0-66.508-0.21-133.042 0.098-199.625 0.21-27.631 20.907-48.673 46.909-48.747 26.298-0.098 52.46 21.314 52.743 49.487 0.198 28.123-0.616 141.307-0.024 169.751 0.099 4.786 2.764 10.657 5.922 14.062 24.594 26.543 144.636 152.371 169.182 178.953 25.213 27.259 15.146 70.999-18.675 82.297z" fill="#FFFFFF" p-id="3801"></path></svg>