<?xml version="1.0" standalone="no"?><!DOCTYPE svg PUBLIC "-//W3C//DTD SVG 1.1//EN" "http://www.w3.org/Graphics/SVG/1.1/DTD/svg11.dtd"><svg t="1544604539079" class="icon" style="" viewBox="0 0 1024 1024" version="1.1" xmlns="http://www.w3.org/2000/svg" p-id="8849" xmlns:xlink="http://www.w3.org/1999/xlink" width="64" height="64"><defs><style type="text/css"></style></defs><path d="M512 0c25.4 0 45.9 20.6 45.9 45.9s-20.5 46-45.9 46c-78.6 0-154 21.6-219.5 61.8C168.8 229.6 91.9 364.1 91.9 512c0 78 21.3 152.8 60.9 218 13.2 21.7 6.3 49.9-15.4 63.1s-49.9 6.3-63.1-15.4C25.9 698.2 0 607 0 512 0 331.9 93.8 167.9 244.5 75.4 324.3 26.3 416.3 0 512 0z m0.7 248.4H670.1c58.2 0 105.5 47.2 105.5 105.5v161.5c-1.8 144-119.2 260.2-263.6 260.2-25.4 0-45.9-20.6-45.9-45.9 0-25.4 20.6-45.9 45.9-45.9 94.9 0 171.8-76.9 171.8-171.8V353.8c0-7.5-6.1-13.6-13.6-13.6H512.1c-94.9 0-171.8 76.9-171.8 171.8V929.2c0 25.4-20.6 45.9-45.9 45.9-25.4 0-45.9-20.6-45.9-45.9V513.6v-0.8-0.8c0-145.6 118-263.7 263.7-263.7 0 0 0.3 0 0.5 0.1zM512 1024c-25.4 0-45.9-20.6-45.9-45.9s20.6-45.9 45.9-45.9c76.6 0 150.1-20.5 214.5-58.8C853 798.1 932.1 661.9 932.1 512c0-79.5-22.1-155.6-63.1-221.6-13.4-21.5-6.8-49.9 14.7-63.3 21.5-13.4 49.9-6.8 63.3 14.7 50 80.4 77 173.4 77 270.1 0 182.7-96.5 348.6-250.6 440.3C695 999 605.3 1024 512 1024z" p-id="8850"></path></svg>