<?xml version="1.0" standalone="no"?><!DOCTYPE svg PUBLIC "-//W3C//DTD SVG 1.1//EN" "http://www.w3.org/Graphics/SVG/1.1/DTD/svg11.dtd"><svg t="1544251284148" class="icon" style="" viewBox="0 0 1024 1024" version="1.1" xmlns="http://www.w3.org/2000/svg" p-id="17607" xmlns:xlink="http://www.w3.org/1999/xlink" width="64" height="64"><defs><style type="text/css"></style></defs><path d="M820.3 256.1h2.4c55 0 99.7 44.8 99.7 99.8v503.8c0 55-44.7 99.8-99.7 99.8H291.1c-55 0-99.7-44.8-99.7-99.8V355.9c0-55 44.7-99.8 99.7-99.8h5.8" fill="#FFD200" p-id="17608"></path><path d="M575.4 685.6c48.2 0 23.3 0.1 71.6-0.1 9.8-0.1 18.9 7.8 18.8 18.4-0.1 10.1-8.7 18.1-18.7 18.1-96.9-0.2-84.2-0.2-181.1 0-9.8 0-18.6-8.2-18.6-18.2 0-10.2 8.8-18.4 18.4-18.3 48.7 0.2 60.9 0.1 109.6 0.1zM574.8 539.8h72.9c9.8 0 17.4 7.1 17.8 16.1 0.6 13.1-7.4 19.1-17.3 20.3-0.6 0.1-1.3 0-1.9 0H466.7c-8.4 0-15.1-3.1-18.1-11.4-4.4-11.9 2.7-25 15.7-25h110.5zM574.4 429.3c-49 0-61.5-0.1-110.5 0.1-7.9 0-15.6-7.6-16.3-14.1-1.4-13.9 5.8-19.8 14-21.4 4.1-0.8 8.4-1 12.7-1 92.8-0.1 75.9-0.1 168.7 0 7 0 13.7 0.9 18.7 7s4.8 12.8 2.5 19.5c-1.9 5.7-8.7 9.8-14.9 9.8-49.3 0.1-25.5 0.1-74.9 0.1zM301.2 648.8c29.5-1.1 55.4 24.1 54.7 55.8-0.6 28.7-23.5 55.5-58.2 53.7-27.1-1.4-51.3-23.5-51.3-54.6-0.1-30.2 23.6-55.7 54.8-54.9z m0.3 31.3c-12.8-0.7-23.7 10.3-23.9 23.3-0.1 12.2 9.8 23.3 23.2 23.7 12.6 0.3 23.9-11.1 24-23.3 0.2-12.4-11.3-24.5-23.3-23.7zM300.8 612.4c-31-0.4-55-24.1-54.8-54.8 0.2-31.4 23.2-54.4 54.8-54.7 30.1-0.3 55.8 23 55 56.6-0.6 28.6-24 52.8-55 52.9z m0.6-31.1c12.8-0.7 23-10.6 23.2-23.8 0.3-12.3-11.4-23.7-23.8-23.7-11.6 0-24.6 12.7-23.8 23.9 1.2 13.5 9.7 22.6 24.4 23.6zM292 455.6c-10.4-10.4-20.4-20.4-30.4-30.5-9.2-9.2-18.3-18.7-27.7-27.6-7.4-7-7-19.1-0.2-26.5 6.1-6.5 19.8-6.2 26.3 0.7 10.3 10.8 21 21.3 31.8 32.1 1.5-1.4 2.8-2.5 4-3.7l55.4-55.4c7.2-7.2 16.7-8.6 25.4-2.2 7.4 5.4 9.7 18.5 2.9 25.4-28.9 29.2-58 58.1-87.5 87.7z" fill="#D38900" p-id="17609"></path><path d="M731.4 868.2H199.7c-55 0-99.7-44.8-99.7-99.8V264.5c0-55 44.7-99.8 99.7-99.8h5.8c10.3 0 18.6 8.3 18.6 18.6s-8.3 18.6-18.6 18.6h-5.8c-34.4 0-63.2 28.5-63.2 63v511.8c0 34.5 20.4 54.8 54.8 54.8h548.3c34.4 0 54.1-28.8 54.1-63.2l0.7-503.4c0-34.5-28.7-63-63.2-63H729c-10.3 0-18.6-8.3-18.6-18.6s8.3-18.6 18.6-18.6h2.4c55 0 99.7 44.8 99.7 99.8v503.8c0 55.1-44.7 99.9-99.7 99.9z" fill="#333333" p-id="17610"></path><path d="M606.1 155.4h-42.7c-8.3-51.8-53.1-91.5-107-91.5s-98.7 39.7-107 91.5h-42.7c-23.4 0-42.4 19.1-42.4 42.6v42.6c0 23.5 19 42.6 42.4 42.6h299.4c23.4 0 42.4-19.1 42.4-42.6V198c0.1-23.5-19-42.6-42.4-42.6z m7.8 85.3c0 4.2-3.6 7.8-7.8 7.8H306.7c-4.2 0-7.8-3.6-7.8-7.8V198c0-4.2 3.6-7.8 7.8-7.8h58.6c9.6 0 17.3-7.8 17.3-17.4 0-40.8 33.1-74.1 73.7-74.1s73.7 33.2 73.7 74.1c0 9.6 7.8 17.4 17.3 17.4h58.6c4.2 0 7.8 3.6 7.8 7.8v42.7h0.2z" fill="#333333" p-id="17611"></path></svg>