<?xml version="1.0" standalone="no"?><!DOCTYPE svg PUBLIC "-//W3C//DTD SVG 1.1//EN" "http://www.w3.org/Graphics/SVG/1.1/DTD/svg11.dtd"><svg t="1544251417973" class="icon" style="" viewBox="0 0 1024 1024" version="1.1" xmlns="http://www.w3.org/2000/svg" p-id="24312" xmlns:xlink="http://www.w3.org/1999/xlink" width="64" height="64"><defs><style type="text/css"></style></defs><path d="M341.927 299.137v94.928c0 38.124 31.016 69.14 69.14 69.14h69.21v184.94a25.612 25.612 0 0 0 0 13.448v118.726c0 14.129 11.454 25.583 25.583 25.583s25.582-11.454 25.582-25.583v-99.868h87.03c14.128 0 25.582-11.453 25.582-25.583s-11.454-25.583-25.583-25.583h-87.029v-44.378h87.03c14.128 0 25.582-11.452 25.582-25.582s-11.454-25.583-25.583-25.583h-87.029v-70.538h69.21c38.124 0 69.14-31.017 69.14-69.14v-94.928c0-38.124-31.017-69.142-69.14-69.142-14.13 0-25.583 11.454-25.583 25.583s11.454 25.583 25.583 25.583c9.912 0 17.975 8.063 17.975 17.976v94.928c0 9.912-8.064 17.974-17.975 17.974H411.068c-9.912 0-17.976-8.063-17.976-17.974v-94.928c0-9.913 8.064-17.976 17.976-17.976h54.868c11.507 0.7 58.585 1.884 84.241-22.778 10.186-9.791 10.506-25.986 0.714-36.172-9.79-10.187-25.987-10.505-36.173-0.715-6.63 6.374-29.697 9.626-46.19 8.56a25.473 25.473 0 0 0-1.769-0.062h-55.692c-38.124 0.002-69.14 31.019-69.14 69.144z" fill="#FFCC00" p-id="24313"></path><path d="M910.092 192.668c-12.35-18.807-26.99-22.755-37.099-22.755-69.098 0-276.771-81.234-350.959-112.535-13.02-5.493-28.023 0.609-33.515 13.625-5.493 13.018 0.607 28.022 13.624 33.515 0.685 0.29 69.386 29.225 148.143 57.757 102.924 37.287 175.918 57.01 217.166 58.686 2.97 4.62 9.612 17.988 15.416 51.192 5.595 31.995 8.666 73.42 8.648 116.646-0.039 100.061-15.738 195.992-41.997 256.617C787.769 787.977 565.326 891.338 512 914.414c-53.34-23.083-275.77-126.44-337.519-268.998-26.259-60.625-41.958-156.557-41.997-256.617-0.016-43.226 3.054-84.652 8.649-116.647 5.77-33.004 12.366-46.41 15.362-51.108 57.466-0.686 185.747-12.792 257.688-101.374 8.908-10.968 7.237-27.08-3.731-35.987-10.97-8.909-27.08-7.237-35.987 3.73-60.471 74.46-176.416 82.499-223.46 82.499-10.107 0-24.749 3.948-37.098 22.754C88.464 231.415 80.433 325.784 81.4 401.179c1.33 103.524 18.144 199.956 46.131 264.572 18.535 42.791 50.306 85.382 94.43 126.59 34.468 32.188 76.634 63.735 125.328 93.766 63.472 39.146 120.793 65.186 145.13 75.62a25.657 25.657 0 0 0 17.482 6.912c0.697 0 1.398-0.033 2.098-0.092 0.701 0.06 1.401 0.092 2.098 0.092a25.662 25.662 0 0 0 17.473-6.907c24.333-10.432 81.661-36.475 145.14-75.625 48.694-30.03 90.86-61.578 125.328-93.766 44.124-41.208 75.895-83.799 94.43-126.59 27.988-64.617 44.801-161.05 46.13-264.572 0.97-75.393-7.062-169.762-32.506-208.51z" fill="" p-id="24314"></path></svg>