<?xml version="1.0" standalone="no"?><!DOCTYPE svg PUBLIC "-//W3C//DTD SVG 1.1//EN" "http://www.w3.org/Graphics/SVG/1.1/DTD/svg11.dtd"><svg t="1544609981031" class="icon" style="" viewBox="0 0 1024 1024" version="1.1" xmlns="http://www.w3.org/2000/svg" p-id="2080" xmlns:xlink="http://www.w3.org/1999/xlink" width="64" height="64"><defs><style type="text/css"></style></defs><path d="M789.965779 441.795055c-1.434675 0-2.821255 0.194428-4.154623 0.523933l-115.935476 0L669.87568 277.368168c0-87.065961-70.832232-157.898193-157.898193-157.898193l-1.39579 0c-87.064938 0-157.898193 70.833255-157.898193 157.898193l0 164.951843-118.308523 0c-3.594875 0-6.931876 1.099031-9.697873 2.977821-5.559623 2.87242-9.367345 8.66331-9.367345 15.352663l0 231.321436c0 55.987129 21.943778 108.764146 61.790298 148.610666 39.84652 39.84652 92.623537 61.790298 148.610666 61.790298l171.136705 0c55.987129 0 108.764146-21.943778 148.610666-61.790298 39.84652-39.84652 61.790298-92.623537 61.790298-148.610666L807.248398 459.078697C807.249421 449.533296 799.511179 441.795055 789.965779 441.795055zM387.251811 277.368168c0-68.004837 55.326073-123.33091 123.329886-123.33091l1.39579 0c68.004837 0 123.329886 55.326073 123.329886 123.33091l0 164.951843-248.056586 0L387.250788 277.368168zM596.848457 867.804588l-171.136705 0c-96.955192 0-175.833681-78.878488-175.833681-175.833681L249.878071 476.886271l522.803044 0 0 215.084637C772.682138 788.9261 693.803649 867.804588 596.848457 867.804588z" p-id="2081"></path><path d="M593.116459 600.289835c0-44.062542-35.846416-79.908958-79.908958-79.908958-44.061518 0-79.907934 35.846416-79.907934 79.908958 0 38.08541 26.79118 70.012563 62.511729 77.977979l0 70.927399c0 9.607822 7.788383 17.396205 17.396205 17.396205s17.396205-7.788383 17.396205-17.396205l0-70.927399C566.325279 670.303422 593.116459 638.376269 593.116459 600.289835zM513.207501 645.405359c-24.877597 0-45.115524-20.237927-45.115524-45.115524s20.237927-45.116547 45.115524-45.116547 45.116547 20.23895 45.116547 45.116547S538.085098 645.405359 513.207501 645.405359z" p-id="2082"></path></svg>