<?xml version="1.0" standalone="no"?><!DOCTYPE svg PUBLIC "-//W3C//DTD SVG 1.1//EN" "http://www.w3.org/Graphics/SVG/1.1/DTD/svg11.dtd"><svg t="1544425424596" class="icon" style="" viewBox="0 0 1024 1024" version="1.1" xmlns="http://www.w3.org/2000/svg" p-id="71694" xmlns:xlink="http://www.w3.org/1999/xlink" width="32" height="32"><defs><style type="text/css"></style></defs><path d="M626.816 181.482667a16.874667 16.874667 0 0 1-14.549333-25.450667l55.018666-92.714667a16.917333 16.917333 0 0 1 29.141334 17.066667l-55.018667 92.8a17.066667 17.066667 0 0 1-14.592 8.277333m-220.053333 0a16.917333 16.917333 0 0 1-14.229334-7.808l-59.328-92.693333a16.810667 16.810667 0 0 1 5.184-23.36 17.066667 17.066667 0 0 1 23.466667 5.184l59.264 92.714667a16.832 16.832 0 0 1-5.205333 23.274666 17.066667 17.066667 0 0 1-9.066667 2.645334m88.853333-12.650667V38.186667a16.938667 16.938667 0 0 1 33.856 0v130.645333a16.938667 16.938667 0 0 1-33.941333 0z m234.666667 249.408l100.842667-153.856 98.133333 153.856H730.24z m-18.346667 33.706667h213.333334L557.717333 894.058667z m-396.565333 0l150.506667 442.794666L98.688 451.946667h216.64z m-18.453333-33.749334H96l103.253333-154.944z m32.96-11.157333l-100.842667-159.765333 233.130667 0.725333z m346.090666 44.8l-164.565333 472.106667-160.426667-471.936h324.970667z m-117.12-203.541333l241.706667 0.746666-103.04 157.205334z m-45.098666-0.149334l149.333333 170.133334h-298.666667l141.461334-170.154667h7.850666zM839.936 215.466667L191.872 213.333333 42.666667 437.333333 511.424 1002.666667 981.333333 437.162667z" p-id="71695"></path></svg>