<?xml version="1.0" standalone="no"?><!DOCTYPE svg PUBLIC "-//W3C//DTD SVG 1.1//EN" "http://www.w3.org/Graphics/SVG/1.1/DTD/svg11.dtd"><svg t="1544424508586" class="icon" style="" viewBox="0 0 1024 1024" version="1.1" xmlns="http://www.w3.org/2000/svg" p-id="54868" xmlns:xlink="http://www.w3.org/1999/xlink" width="48" height="48"><defs><style type="text/css"></style></defs><path d="M397.37231 277.501198c2.451842 5.569856 7.962346 9.165754 14.048971 9.165754l130.983193 0c5.816472 0 11.132548-3.28686 13.731746-8.489348l103.353926-206.883861c2.376117-4.758374 2.121314-10.408047-0.675382-14.932084s-7.737218-7.277754-13.056364-7.277754l-325.411371 0c-5.186116 0-10.021238 2.618641-12.855796 6.962575-2.833535 4.343935-3.282766 9.824763-1.193175 14.570857L397.37231 277.501198z" p-id="54869"></path><path d="M555.668569 329.469803c-1.935072-6.512321-7.92039-10.978029-14.71412-10.978029L411.007865 318.491775c-6.803963 0-12.795421 4.477988-14.721283 11.003612l-128.523165 435.396321c-1.606591 5.443989-0.078795 11.33107 3.974521 15.305591L465.825354 970.527135c2.984984 2.926656 6.865361 4.389984 10.746762 4.389984 3.885494 0 7.770987-1.467421 10.756995-4.400217l193.745632-190.328813c4.053316-3.981684 5.574972-9.874905 3.957125-15.321964L555.668569 329.469803z" p-id="54870"></path><path d="M569.609069 335.88798 695.900404 672.027693 756.864894 672.027693 756.864894 600.655156Z" p-id="54871"></path></svg>