<?xml version="1.0" standalone="no"?><!DOCTYPE svg PUBLIC "-//W3C//DTD SVG 1.1//EN" "http://www.w3.org/Graphics/SVG/1.1/DTD/svg11.dtd"><svg t="1544251994527" class="icon" style="" viewBox="0 0 1024 1024" version="1.1" xmlns="http://www.w3.org/2000/svg" p-id="30429" xmlns:xlink="http://www.w3.org/1999/xlink" width="64" height="64"><defs><style type="text/css"></style></defs><path d="M675.926165 107.415451c-47.994138-47.994138-114.271757-77.704795-187.405681-77.704794S347.966223 59.421314 299.972085 107.415451s-77.704795 115.414474-77.704795 188.548399 29.710657 139.411543 77.704795 187.405681c47.994138 49.136855 115.414474 78.847512 188.548399 78.847512s139.411543-29.710657 187.405681-78.847512c49.136855-47.994138 78.847512-114.271757 78.847512-187.405681s-29.710657-140.554261-78.847512-188.548399z" fill="#FFCF1C" p-id="30430"></path><path d="M568.510714 1018.161353c-7.999023 0-14.855328-6.856305-14.855329-14.855328s6.856305-14.855328 14.855329-14.855329h369.097774c7.999023 0 14.855328 6.856305 14.855328 14.855329s-6.856305 14.855328-14.855328 14.855328H568.510714zM488.520484 0c81.132947 0 155.409589 33.138809 209.117315 86.846535s86.846535 126.84165 86.846535 209.117315c0 81.132947-33.138809 155.409589-86.846535 209.117315s-127.984368 86.846535-209.117315 86.846535c-107.415451 0-203.403727 43.423268-274.252217 113.129039-69.705772 69.705772-113.129039 166.836765-113.129039 273.109499v14.855329c0 4.57087 1.142718 10.284458 1.142718 14.855328 1.142718 9.141741-5.713588 15.998046-13.712611 15.998046-7.999023 1.142718-14.855328-5.713588-15.998046-13.712611 0-4.57087 0-9.141741-1.142718-15.998046v-15.998046c0-114.271757 46.85142-219.401773 122.27078-294.821132 52.565008-52.565008 118.842627-91.417405 194.261987-109.700887-41.137832-14.855328-78.847512-38.852397-108.558169-68.563054-53.707726-53.707726-86.846535-127.984368-86.846535-209.117315 0-82.275665 33.138809-155.409589 86.846535-209.117315S406.244819 0 488.520484 0z m187.405681 107.415451c-47.994138-47.994138-114.271757-77.704795-187.405681-77.704794S347.966223 59.421314 299.972085 107.415451s-77.704795 115.414474-77.704795 188.548399 29.710657 139.411543 77.704795 187.405681c47.994138 49.136855 114.271757 78.847512 188.548399 78.847512 73.133924 0 139.411543-29.710657 187.405681-78.847512 49.136855-47.994138 78.847512-114.271757 78.847512-187.405681s-29.710657-140.554261-78.847512-188.548399z m-107.415451 609.068464c-7.999023 0-14.855328-6.856305-14.855329-14.855328s6.856305-14.855328 14.855329-14.855329h369.097774c7.999023 0 14.855328 6.856305 14.855328 14.855329s-6.856305 14.855328-14.855328 14.855328H568.510714z m0 150.838719c-7.999023 0-14.855328-6.856305-14.855329-14.855328s6.856305-14.855328 14.855329-14.855329h369.097774c7.999023 0 14.855328 6.856305 14.855328 14.855329s-6.856305 14.855328-14.855328 14.855328H568.510714z" fill="#2a2a2a" p-id="30431"></path></svg>