<?xml version="1.0" standalone="no"?><!DOCTYPE svg PUBLIC "-//W3C//DTD SVG 1.1//EN" "http://www.w3.org/Graphics/SVG/1.1/DTD/svg11.dtd"><svg t="1544609891983" class="icon" style="" viewBox="0 0 1024 1024" version="1.1" xmlns="http://www.w3.org/2000/svg" p-id="39890" xmlns:xlink="http://www.w3.org/1999/xlink" width="64" height="64"><defs><style type="text/css"></style></defs><path d="M511 520c-110.1 0-199.7-89.6-199.7-199.7S400.9 120.6 511 120.6c53.2 0 103.4 21.2 141.3 59.8 37.7 38.4 58.4 88.9 58.4 142.3 0 53.2-20.8 103-58.6 140.1C614.5 499.7 564.4 520 511 520z m0-369.4c-93.6 0-169.7 76.1-169.7 169.7S417.4 490 511 490c95.2 0 169.7-73.5 169.7-167.3 0-94.8-76.2-172.1-169.7-172.1z" p-id="39891"></path><path d="M837.2 827.3h-30c0-169.6-132.7-307.5-295.8-307.5-163.1 0-295.8 136.8-295.8 305.1h-30c0-89.4 33.8-173.5 95.3-236.8 29.9-30.8 64.8-55 103.6-71.9 40.2-17.5 82.9-26.4 127-26.4 44 0 86.8 9 127.1 26.8 38.8 17.1 73.6 41.6 103.6 72.8 29.9 31.1 53.3 67.2 69.7 107.3 16.7 41.5 25.3 85.4 25.3 130.6z" p-id="39892"></path></svg>