<?xml version="1.0" standalone="no"?><!DOCTYPE svg PUBLIC "-//W3C//DTD SVG 1.1//EN" "http://www.w3.org/Graphics/SVG/1.1/DTD/svg11.dtd"><svg t="1544424653868" class="icon" style="" viewBox="0 0 1024 1024" version="1.1" xmlns="http://www.w3.org/2000/svg" p-id="56964" xmlns:xlink="http://www.w3.org/1999/xlink" width="32" height="32"><defs><style type="text/css"></style></defs><path d="M341.756 136.353c15.552 11.122 32.524 25.692 45.573 44.76 13.118 19.033 37.324 43.677 37.324 43.677h197.302s20.826-21.4 33.537-38.336c12.507-16.904 23.19-33.029 46.856-48.14 19.816-12.475 30.022-43.712 4.667-53.753-22.046-8.688-31.032 9.262-56.526 9.736-25.153 0.406-28.67-20.758-53.552-30.054-24.883-9.432-38.27-1.15-53.146 13.049-14.74 14.3-20.42 14.976-20.42 14.976s-17.58-10.311-27.317-21.163c-9.6-10.886-34.754-14.841-51.253-4.497-20.96 13.354-25.559 23.496-43.004 27.147-19.811 4.09-51.117-20.014-68.426-5.882-17.24 14.031-7.166 37.154 8.385 48.48z m403.127 260.68c-73.434-61.662-112.92-120.215-112.92-120.215H416.946s-41.244 61.29-107.102 118.39c-75.595 65.72-136.854 170.823-113.798 296.784 20.488 112.037 127.117 239.146 329.22 239.146 195.75 0 310.561-105.204 332.468-233.732 26.776-156.966-50.377-247.905-112.85-300.372zM629.73 728.847c-12.373-0.069-78.231 0-78.231 0s0.27 17.78 0.27 27.113c0 11.354-10.682 23.934-25.829 23.727-15.146-0.201-26.37-7.298-27.587-24.545-0.406-7.775-0.27-26.295-0.27-26.295h-79.11c-12.78 0-21.638-14.54-21.232-25.153 0.405-10.822 10.006-22.114 21.231-22.114h79.246l0.135-54.221s-64.234 0.473-76.136 0.473c-12.17 0-20.623-8.384-21.097-19-0.27-10.75 9.737-30.832 21.097-30.832h76.406l0.135-19.438s-61.057-64.604-68.155-71.569c-7.033-6.997-15.822-22.988-4.464-35.835 10.819-12.305 30.9-3.38 40.435 5.747 10.548 10.109 59.366 60.48 59.366 60.48s56.932-52.806 68.697-62.61c11.63-9.634 27.587-10.344 36.512 0.541 8.925 10.65 5.342 20.994-9.06 34.178-14.469 13.084-70.183 69.947-70.183 69.947v17.68h73.43c16.565 0.475 25.964 19.136 25.694 29.209-0.406 11.494-6.897 21.028-25.288 20.825l-73.43 0.203-0.406 53.62h72.078c18.798 0 26.641 9.866 27.047 22.716 0.404 12.642-8.79 25.284-21.3 25.153z" fill="" p-id="56965"></path></svg>