<svg class="icon" viewBox="0 0 1024 1024" xmlns="http://www.w3.org/2000/svg" width="64" height="64"><defs><style/></defs><path d="M938.7 669.525V249.412c0-90.555-73.522-164.079-164.146-164.079H249.378c-90.556 0-164.079 73.49-164.079 164.08v525.209c0 90.556 73.455 164.079 164.08 164.079h525.209c80.725 0 147.865-58.368 161.553-135.1-43.52-18.842-232.107-100.284-330.377-147.183-74.786 90.59-153.088 144.93-271.12 144.93s-196.814-72.704-187.36-161.655c6.247-58.402 46.285-153.907 220.297-137.523 91.682 8.601 133.666 25.736 208.418 50.415 19.354-35.43 35.43-74.514 47.616-116.02h-331.57v-32.87H456.09v-58.982H256V308.53h200.124v-85.197s1.809-13.312 16.52-13.312h82.057v98.475h213.333v36.181H554.701v58.983h174.046c-16.009 65.126-40.278 124.962-70.69 177.22 50.551 18.296 280.644 88.644 280.644 88.644zm-617.13 75.47c-124.723 0-144.452-78.746-137.83-111.651 6.553-32.734 42.666-75.503 112.025-75.503 79.668 0 151.04 20.446 236.715 62.089-60.177 78.404-134.11 125.064-210.91 125.064zm0 0"/></svg>